<svg width="16" height="16" viewBox="0 0 16 16" fill="none" xmlns="http://www.w3.org/2000/svg">
<path fill-rule="evenodd" clip-rule="evenodd" d="M9.47216 3.22016C9.77439 3.3135 10.0633 3.4335 10.3388 3.58016L11.5608 2.84683C11.6883 2.7704 11.8376 2.73874 11.985 2.75685C12.1325 2.77497 12.2697 2.84183 12.3748 2.94683L13.0535 3.6255C13.1585 3.73063 13.2254 3.86783 13.2435 4.0153C13.2616 4.16277 13.2299 4.31207 13.1535 4.4395L12.4202 5.6615C12.5668 5.93705 12.6868 6.22594 12.7802 6.52816L14.1622 6.87416C14.3063 6.91028 14.4343 6.99353 14.5257 7.11069C14.6172 7.22785 14.6668 7.37221 14.6668 7.52083V8.4795C14.6668 8.62812 14.6172 8.77247 14.5257 8.88963C14.4343 9.0068 14.3063 9.09005 14.1622 9.12616L12.7802 9.47216C12.6868 9.77439 12.5668 10.0633 12.4202 10.3388L13.1535 11.5608C13.2299 11.6883 13.2616 11.8376 13.2435 11.985C13.2254 12.1325 13.1585 12.2697 13.0535 12.3748L12.3748 13.0535C12.2697 13.1585 12.1325 13.2254 11.985 13.2435C11.8376 13.2616 11.6883 13.2299 11.5608 13.1535L10.3388 12.4202C10.0633 12.5668 9.77439 12.6868 9.47216 12.7802L9.12616 14.1622C9.09005 14.3063 9.0068 14.4343 8.88963 14.5257C8.77247 14.6172 8.62812 14.6668 8.4795 14.6668H7.52083C7.37221 14.6668 7.22785 14.6172 7.11069 14.5257C6.99353 14.4343 6.91028 14.3063 6.87416 14.1622L6.52816 12.7802C6.22863 12.6876 5.93846 12.5671 5.6615 12.4202L4.4395 13.1535C4.31207 13.2299 4.16277 13.2616 4.0153 13.2435C3.86783 13.2254 3.73063 13.1585 3.6255 13.0535L2.94683 12.3748C2.84183 12.2697 2.77497 12.1325 2.75685 11.985C2.73874 11.8376 2.7704 11.6883 2.84683 11.5608L3.58016 10.3388C3.43326 10.0619 3.31273 9.7717 3.22016 9.47216L1.83816 9.12616C1.69411 9.09008 1.56623 9.00692 1.4748 8.8899C1.38338 8.77287 1.33365 8.62867 1.3335 8.48016V7.5215C1.3335 7.37288 1.38316 7.22852 1.4746 7.11136C1.56604 6.99419 1.694 6.91094 1.83816 6.87483L3.22016 6.52883C3.3135 6.22661 3.4335 5.93772 3.58016 5.66216L2.84683 4.44016C2.7704 4.31274 2.73874 4.16344 2.75685 4.01597C2.77497 3.86849 2.84183 3.7313 2.94683 3.62616L3.6255 2.94683C3.73063 2.84183 3.86783 2.77497 4.0153 2.75685C4.16277 2.73874 4.31207 2.7704 4.4395 2.84683L5.6615 3.58016C5.93705 3.4335 6.22594 3.3135 6.52816 3.22016L6.87416 1.83816C6.91025 1.69411 6.9934 1.56623 7.11043 1.4748C7.22746 1.38338 7.37166 1.33365 7.52016 1.3335H8.47883C8.62745 1.3335 8.77181 1.38316 8.88897 1.4746C9.00613 1.56604 9.08938 1.694 9.1255 1.83816L9.47216 3.22016ZM8.00016 10.6668C8.70741 10.6668 9.38568 10.3859 9.88578 9.88578C10.3859 9.38568 10.6668 8.70741 10.6668 8.00016C10.6668 7.29292 10.3859 6.61464 9.88578 6.11454C9.38568 5.61445 8.70741 5.3335 8.00016 5.3335C7.29292 5.3335 6.61464 5.61445 6.11454 6.11454C5.61445 6.61464 5.3335 7.29292 5.3335 8.00016C5.3335 8.70741 5.61445 9.38568 6.11454 9.88578C6.61464 10.3859 7.29292 10.6668 8.00016 10.6668Z" fill="white"/>
</svg>
