<svg width="70" height="70" viewBox="0 0 70 70" fill="none" xmlns="http://www.w3.org/2000/svg">
<g clip-path="url(#clip0_371_15329)">
<path d="M35 69C53.7777 69 69 53.7777 69 35C69 16.2223 53.7777 1 35 1C16.2223 1 1 16.2223 1 35C1 53.7777 16.2223 69 35 69Z" fill="white" stroke="#FF3E00" stroke-width="2"/>
<path d="M54.1943 18.8218C49.2838 12.9739 39.5842 11.2407 32.5737 14.958L20.2574 21.4893C18.5913 22.3587 17.1616 23.5075 16.0595 24.8629C14.9575 26.2183 14.2078 27.7501 13.8582 29.3602C13.7024 30.0827 13.6231 30.8197 13.6217 31.5588C13.6292 33.5632 14.2198 35.5364 15.3428 37.3098C14.2899 38.6408 13.5711 40.1354 13.2301 41.7036C12.8808 43.3427 12.9298 45.0416 13.3728 46.6578C13.8162 48.2847 14.6454 49.8217 15.812 51.1788C20.7222 57.0263 30.4435 58.7595 37.4323 55.0426L49.7358 48.5109C51.401 47.6406 52.8289 46.4904 53.9282 45.1336C55.0272 43.7768 55.7731 42.2437 56.1179 40.6328C56.2761 39.9086 56.3555 39.174 56.3544 38.4376C56.3513 36.437 55.7683 34.467 54.6546 32.6939C55.7071 31.3639 56.4259 29.8707 56.7676 28.3039C56.9202 27.5789 56.9979 26.8446 57 26.1087C57.0007 23.4979 56.0196 20.9524 54.1943 18.8287V18.8218Z" fill="#FF3E00"/>
<path d="M31.3697 51.7292C30.5608 51.9026 29.7358 51.9902 28.9085 51.9905C27.329 51.9908 25.7728 51.6725 24.3734 51.0624C22.9743 50.4525 21.7736 49.5694 20.8743 48.4887C19.7764 47.2113 19.1865 45.6799 19.1875 44.1093C19.1882 43.6666 19.2343 43.225 19.325 42.7917C19.3989 42.4656 19.4984 42.1459 19.6224 41.8354L19.8548 41.2483L20.4828 41.6456C21.9413 42.5363 23.5711 43.2145 25.3022 43.6511L25.7587 43.7656L25.7157 44.1451V44.342C25.7147 44.8167 25.8924 45.2805 26.2234 45.6668C26.4909 45.9962 26.8511 46.2663 27.2726 46.4533C27.7042 46.6427 28.1704 46.7407 28.6417 46.7411C28.8906 46.7419 29.1387 46.7155 29.3818 46.6623C29.6456 46.6049 29.9004 46.5122 30.1395 46.3867L42.4423 39.8231C42.8112 39.6285 43.115 39.3593 43.3251 39.0407C43.5348 38.722 43.6441 38.3642 43.6427 38.0005C43.6393 37.5258 43.4571 37.0638 43.1219 36.6791C42.8504 36.3539 42.488 36.0885 42.0663 35.905C41.6344 35.7197 41.1691 35.6249 40.6992 35.6265C40.4503 35.6258 40.2021 35.6523 39.9591 35.7056C39.6965 35.7617 39.4431 35.8544 39.2062 35.981L34.5158 38.4732C33.7264 38.8867 32.8857 39.1937 32.0157 39.3862C31.2113 39.5587 30.3846 39.6467 29.5541 39.6474C27.9749 39.6474 26.4194 39.3291 25.0203 38.72C23.6213 38.1108 22.4202 37.2288 21.5199 36.1494C20.4233 34.8713 19.8335 33.3403 19.8331 31.77C19.8338 31.3283 19.8799 30.8876 19.9706 30.4524C20.1813 29.4844 20.631 28.5635 21.292 27.7481C21.9527 26.9324 22.81 26.2401 23.8093 25.7152L36.1252 19.1873C36.898 18.7783 37.7408 18.4689 38.6253 18.2705C39.4297 18.099 40.2564 18.0127 41.0866 18.0127C42.6695 18.0093 44.2298 18.3255 45.6337 18.9343C47.0376 19.5428 48.2428 20.4262 49.1465 21.5076C50.2365 22.7888 50.8189 24.3209 50.812 25.8905C50.8112 26.3345 50.765 26.7772 50.6741 27.2119C50.6004 27.5378 50.5011 27.8575 50.3771 28.1678L50.1448 28.755L49.5167 28.372C48.0592 27.48 46.4292 26.8018 44.6973 26.3666L44.2408 26.2487L44.2838 25.8688V25.6722C44.2838 25.1961 44.1064 24.732 43.7761 24.3436C43.5049 24.0187 43.1436 23.7537 42.7221 23.5702C42.2911 23.3848 41.8267 23.2896 41.3574 23.2907C41.1111 23.2951 40.8659 23.3264 40.6263 23.3838C40.362 23.439 40.1069 23.5318 39.869 23.6595L27.5531 30.1874C27.2609 30.3389 27.0026 30.5483 26.7937 30.8027C26.599 31.0402 26.4626 31.32 26.3957 31.6198C26.3654 31.7443 26.3466 31.8713 26.3396 31.9993C26.3393 32.473 26.5167 32.935 26.8474 33.3207C27.1182 33.6455 27.4799 33.9109 27.901 34.0941C28.332 34.2795 28.7964 34.3745 29.2656 34.3732C29.5145 34.374 29.7627 34.3475 30.0057 34.2942C30.27 34.2385 30.525 34.1458 30.7634 34.0188L35.4625 31.5122C36.2515 31.0979 37.0923 30.7909 37.9626 30.5992C38.7715 30.426 39.5965 30.3384 40.4238 30.3379C42.0037 30.3379 43.5599 30.6559 44.9596 31.265C46.3594 31.8742 47.5615 32.7566 48.4624 33.8363C49.559 35.114 50.1489 36.6451 50.1492 38.2157C50.1503 38.6622 50.1028 39.1081 50.0073 39.5474C49.7979 40.5157 49.3483 41.437 48.6876 42.2527C48.0266 43.0681 47.1689 43.7601 46.1686 44.2846L33.8743 50.8125C33.084 51.2279 32.2415 51.5363 31.3697 51.7292Z" fill="white"/>
<path d="M54.1943 18.8218C49.2838 12.9739 39.5842 11.2407 32.5737 14.958L20.2574 21.4893C18.5913 22.3587 17.1616 23.5075 16.0595 24.8629C14.9575 26.2183 14.2078 27.7501 13.8582 29.3602C13.7024 30.0827 13.6231 30.8197 13.6217 31.5588C13.6292 33.5632 14.2198 35.5364 15.3428 37.3098C14.2899 38.6408 13.5711 40.1354 13.2301 41.7036C12.8808 43.3427 12.9298 45.0416 13.3728 46.6578C13.8162 48.2847 14.6454 49.8217 15.812 51.1788C20.7222 57.0263 30.4435 58.7595 37.4323 55.0426L49.7358 48.5109C51.401 47.6406 52.8289 46.4904 53.9282 45.1336C55.0272 43.7768 55.7731 42.2437 56.1179 40.6328C56.2761 39.9086 56.3555 39.174 56.3544 38.4376C56.3513 36.437 55.7683 34.467 54.6546 32.6939C55.7071 31.3639 56.4259 29.8707 56.7676 28.3039C56.9202 27.5789 56.9979 26.8446 57 26.1087C57.0007 23.4979 56.0196 20.9524 54.1943 18.8287V18.8218Z" fill="#FF3E00"/>
<path d="M31.3702 51.7297C30.5613 51.9031 29.7363 51.9906 28.9089 51.9909C27.3294 51.9913 25.7733 51.673 24.3738 51.0628C22.9748 50.453 21.774 49.5699 20.8748 48.4891C19.7769 47.2118 19.187 45.6803 19.188 44.1097C19.1887 43.667 19.2347 43.2255 19.3255 42.7921C19.3994 42.4661 19.4988 42.1463 19.6229 41.8358L19.8552 41.2487L20.4833 41.6461C21.9418 42.5367 23.5715 43.215 25.3027 43.6515L25.7592 43.766L25.7162 44.1455V44.3425C25.7152 44.8172 25.8929 45.2809 26.2239 45.6673C26.4913 45.9966 26.8516 46.2668 27.273 46.4538C27.7047 46.6431 28.1708 46.7411 28.6422 46.7415C28.891 46.7423 29.1392 46.7159 29.3823 46.6628C29.6461 46.6053 29.9009 46.5126 30.1399 46.3871L42.4428 39.8235C42.8116 39.6289 43.1155 39.3598 43.3255 39.0411C43.5352 38.7225 43.6445 38.3646 43.6432 38.0009C43.6397 37.5262 43.4575 37.0642 43.1224 36.6796C42.8508 36.3544 42.4885 36.089 42.0667 35.9054C41.6349 35.7201 41.1696 35.6253 40.6996 35.627C40.4508 35.6263 40.2026 35.6528 39.9595 35.7061C39.6969 35.7621 39.4435 35.8548 39.2067 35.9814L34.5162 38.4736C33.7269 38.8871 32.8862 39.1941 32.0161 39.3866C31.2117 39.5592 30.385 39.6472 29.5545 39.6478C27.9753 39.6478 26.4198 39.3295 25.0208 38.7204C23.6217 38.1113 22.4206 37.2292 21.5204 36.1498C20.4238 34.8718 19.8339 33.3407 19.8336 31.7704C19.8343 31.3287 19.8803 30.888 19.9711 30.4528C20.1818 29.4848 20.6314 28.5639 21.2925 27.7486C21.9531 26.9328 22.8105 26.2405 23.8097 25.7156L36.1257 19.1878C36.8984 18.7787 37.7413 18.4693 38.6258 18.271C39.4301 18.0994 40.2569 18.0132 41.087 18.0132C42.67 18.0097 44.2303 18.326 45.6342 18.9348C47.0381 19.5432 48.2432 20.4266 49.147 21.5081C50.237 22.7892 50.8193 24.3213 50.8124 25.8909C50.8117 26.3349 50.7655 26.7777 50.6746 27.2123C50.6008 27.5383 50.5015 27.8579 50.3776 28.1683L50.1452 28.7554L49.5172 28.3725C48.0597 27.4804 46.4296 26.8022 44.6978 26.367L44.2413 26.2491L44.2843 25.8693V25.6726C44.2843 25.1965 44.1069 24.7325 43.7765 24.344C43.5053 24.0192 43.144 23.7542 42.7226 23.5706C42.2916 23.3852 41.8271 23.2901 41.3579 23.2911C41.1115 23.2956 40.8664 23.3268 40.6267 23.3843C40.3624 23.4394 40.1074 23.5323 39.8695 23.66L27.5535 30.1878C27.2614 30.3394 27.003 30.5487 26.7942 30.8031C26.5994 31.0406 26.4631 31.3205 26.3961 31.6202C26.3658 31.7447 26.3471 31.8718 26.3401 31.9997C26.3398 32.4734 26.5171 32.9354 26.8478 33.3211C27.1187 33.646 27.4803 33.9113 27.9014 34.0945C28.3324 34.2799 28.7969 34.3749 29.2661 34.3737C29.515 34.3744 29.7631 34.3479 30.0062 34.2946C30.2704 34.2389 30.5255 34.1462 30.7638 34.0193L35.4629 31.5126C36.2519 31.0984 37.0927 30.7913 37.963 30.5996C38.772 30.4264 39.597 30.3389 40.4243 30.3384C42.0042 30.3384 43.5603 30.6563 44.9601 31.2655C46.3598 31.8746 47.5619 32.757 48.4629 33.8367C49.5595 35.1145 50.1493 36.6455 50.1497 38.2161C50.1507 38.6627 50.1033 39.1085 50.0077 39.5478C49.7984 40.5162 49.3487 41.4374 48.6881 42.2531C48.027 43.0685 47.1694 43.7605 46.169 44.2851L33.8748 50.8129C33.0845 51.2284 32.2419 51.5367 31.3702 51.7297Z" fill="white"/>
</g>
<defs>
<clipPath id="clip0_371_15329">
<rect width="70" height="70" fill="white"/>
</clipPath>
</defs>
</svg>
