<svg width="70" height="70" viewBox="0 0 70 70" fill="none" xmlns="http://www.w3.org/2000/svg">
<g clip-path="url(#clip0_371_15512)">
<path d="M35 69C53.7777 69 69 53.7777 69 35C69 16.2223 53.7777 1 35 1C16.2223 1 1 16.2223 1 35C1 53.7777 16.2223 69 35 69Z" fill="white" stroke="#330000" stroke-width="2"/>
<path d="M17.5 30.1666C17.5 25.7329 17.5 23.516 18.3629 21.8226C19.1219 20.333 20.333 19.1219 21.8226 18.3629C23.516 17.5 25.7329 17.5 30.1666 17.5H39.8334C44.2671 17.5 46.484 17.5 48.1774 18.3629C49.667 19.1219 50.8781 20.333 51.6371 21.8226C52.5 23.516 52.5 25.7329 52.5 30.1666V39.8334C52.5 44.2671 52.5 46.484 51.6371 48.1774C50.8781 49.667 49.667 50.8781 48.1774 51.6371C46.484 52.5 44.2671 52.5 39.8334 52.5H30.1666C25.7329 52.5 23.516 52.5 21.8226 51.6371C20.333 50.8781 19.1219 49.667 18.3629 48.1774C17.5 46.484 17.5 44.2671 17.5 39.8334V30.1666Z" fill="#330000"/>
<path d="M34.4607 39.4952H29.0371L27.9336 43.0111C27.903 43.1417 27.7827 43.2342 27.6519 43.2277H24.9048C24.7481 43.2277 24.6934 43.1394 24.7404 42.9628L29.4362 29.0921C29.4832 28.9476 29.5302 28.7831 29.5771 28.5984C29.6386 28.2771 29.67 27.9506 29.6711 27.6232C29.6576 27.5264 29.7426 27.441 29.8354 27.4545H33.5686C33.678 27.4545 33.7405 27.4947 33.7564 27.5749L39.0862 42.9869C39.1331 43.1476 39.0862 43.2278 38.9454 43.2277H35.893C35.786 43.2399 35.6837 43.1666 35.6582 43.0592L34.4607 39.4952ZM29.8824 36.4609H33.5921C32.9826 34.3782 32.2947 32.3228 31.7372 30.2239C31.1357 32.3264 30.4795 34.4204 29.8824 36.4609Z" fill="#FF9A00"/>
<path d="M42.2558 30.0073C42.0163 30.0171 41.7775 29.975 41.5549 29.8838C41.3324 29.7925 41.1312 29.654 40.9644 29.4775C40.7982 29.2933 40.6689 29.0773 40.5843 28.8416C40.4997 28.6061 40.4613 28.3558 40.4713 28.1049C40.4628 27.8565 40.5054 27.6091 40.5964 27.3788C40.6875 27.1485 40.8249 26.9405 40.9997 26.7684C41.1727 26.598 41.3769 26.4645 41.6007 26.3757C41.8243 26.2868 42.0629 26.2443 42.3027 26.2506C42.8663 26.2506 43.3084 26.4232 43.6293 26.7684C43.7913 26.9477 43.9172 27.1581 43.9998 27.3874C44.0823 27.6168 44.12 27.8606 44.1105 28.1049C44.1204 28.3566 44.0808 28.608 43.994 28.8438C43.9074 29.0795 43.7753 29.295 43.6058 29.4775C43.4287 29.6566 43.2172 29.7961 42.9849 29.8874C42.7525 29.9785 42.5043 30.0194 42.2558 30.0073ZM40.6357 42.987V31.4763C40.6357 31.3318 40.698 31.2595 40.8235 31.2595H43.7115C43.8365 31.2595 43.8992 31.3318 43.8993 31.4763V42.987C43.8993 43.1478 43.8367 43.228 43.7115 43.2279H40.847C40.7062 43.2279 40.6357 43.1476 40.6357 42.987Z" fill="#FF9A00"/>
</g>
<defs>
<clipPath id="clip0_371_15512">
<rect width="70" height="70" fill="white"/>
</clipPath>
</defs>
</svg>
