<svg width="74" height="70" viewBox="0 0 74 70" fill="none" xmlns="http://www.w3.org/2000/svg">
<g clip-path="url(#clip0_371_15497)">
<path d="M72.1047 35C72.1047 53.7436 56.334 69 36.8023 69C17.2706 69 1.5 53.7436 1.5 35C1.5 16.2564 17.2706 1 36.8023 1C56.334 1 72.1047 16.2564 72.1047 35Z" fill="white" stroke="#DF234F" stroke-width="2"/>
<mask id="mask0_371_15497" style="mask-type:luminance" maskUnits="userSpaceOnUse" x="12" y="12" width="49" height="46">
<path d="M60.6579 12H12.9463V58H60.6579V12Z" fill="white"/>
</mask>
<g mask="url(#mask0_371_15497)">
<path d="M41.0516 12.1079C40.7161 12.1079 40.3807 12.1798 40.0825 12.2876C40.7161 12.6829 41.0516 13.222 41.238 13.8329C41.238 13.9048 41.2753 13.9767 41.2753 14.0485C41.2753 14.1204 41.3125 14.1923 41.3125 14.2642C41.3498 15.3063 41.0143 15.4501 40.7907 16.061C40.4179 16.8517 40.5298 17.7142 40.9771 18.397C41.0143 18.4688 41.0516 18.5767 41.1262 18.6485C40.6416 15.6298 43.2508 15.1985 43.7354 14.2642C43.7727 13.4376 43.0645 12.8985 42.5053 12.5032C41.9462 12.1798 41.4989 12.1079 41.0516 12.1079ZM44.9655 12.7548C44.9282 13.0423 44.9655 12.9704 44.9282 13.1142C44.9282 13.222 44.9282 13.3298 44.8909 13.4376C44.8536 13.5454 44.8536 13.6173 44.8164 13.7251C44.7791 13.8329 44.7418 13.9048 44.7045 14.0126C44.6673 14.0845 44.63 14.1563 44.5927 14.2642C44.5554 14.3001 44.5182 14.372 44.4809 14.4079C44.4436 14.4438 44.4436 14.4798 44.4063 14.5157C44.3318 14.5876 44.2945 14.6954 44.22 14.7673L43.9963 14.9829C43.9218 15.0548 43.8472 15.1267 43.7727 15.1626C43.5117 15.3423 43.2135 15.486 42.9526 15.6657C42.8781 15.7376 42.7663 15.7735 42.6917 15.8454C42.6172 15.9173 42.5426 15.9532 42.4681 16.0251L42.2444 16.2407C42.1699 16.3126 42.0953 16.3845 42.058 16.4923C41.9835 16.5642 41.9462 16.672 41.8717 16.7438C41.8344 16.8517 41.7971 16.9235 41.7226 17.0313C41.6853 17.1392 41.648 17.211 41.6107 17.3188C41.5735 17.4267 41.5362 17.5345 41.5362 17.6063C41.5362 17.6423 41.5362 17.7142 41.4989 17.7501C41.4989 17.786 41.4989 17.8579 41.4616 17.8938V18.397C41.4616 18.5048 41.4616 18.5767 41.4989 18.6845C41.4989 18.7923 41.5362 18.8642 41.5735 18.972C41.6107 19.0798 41.648 19.1517 41.6853 19.2595C41.7226 19.3313 41.7598 19.3673 41.7598 19.4392L38.927 18.397C38.4424 18.2532 37.9951 18.1454 37.5105 18.0376C37.2496 17.9657 36.9887 17.9298 36.7277 17.8579C35.9823 17.7142 35.2368 17.6063 34.4913 17.5345H34.4167C33.6712 17.4626 32.963 17.4267 32.2175 17.4267C31.6584 17.4267 31.1365 17.4626 30.6147 17.4985C29.8692 17.5345 29.1237 17.6423 28.3782 17.7501L27.8191 17.8579C27.4463 17.9298 27.0736 18.0017 26.7009 18.1095C26.5145 18.1454 26.3281 18.2173 26.1417 18.2532C25.9554 18.3251 25.769 18.397 25.6199 18.4688C25.4708 18.5407 25.359 18.5767 25.2099 18.6485C25.1726 18.6485 25.1726 18.6485 25.1353 18.6845C25.0235 18.7563 24.9117 18.7923 24.7998 18.8642C24.7626 18.8642 24.7253 18.9001 24.7253 18.9001C24.5762 18.972 24.4644 19.0438 24.3525 19.0798C24.278 19.1157 24.1662 19.1517 24.0916 19.1876C24.0543 19.2235 24.0171 19.2235 23.9798 19.2595C23.868 19.3313 23.7562 19.3673 23.6443 19.4392C23.5325 19.511 23.4207 19.547 23.3461 19.6188C23.2716 19.6907 23.1598 19.7267 23.0852 19.7985C23.0852 19.7985 23.0479 19.7985 23.0479 19.8345C22.9734 19.8704 22.8988 19.9423 22.8243 20.0142L22.787 20.0501C22.7125 20.086 22.6752 20.1579 22.6006 20.1938C22.5634 20.1938 22.5634 20.2298 22.5261 20.2298C22.4515 20.2657 22.4143 20.3376 22.3397 20.3735C22.3397 20.4095 22.3024 20.4095 22.3024 20.4095L22.0788 20.6251L22.0415 20.661L21.8179 20.8767C21.8179 20.8767 21.8179 20.9126 21.7806 20.9126L21.5942 21.0923C21.5569 21.1282 21.5197 21.1282 21.5197 21.1642L21.296 21.3798C21.296 21.4157 21.2587 21.4157 21.2587 21.4517L20.9605 21.7392L20.9233 21.7751C20.7369 21.9907 20.5133 22.1704 20.2896 22.3501C20.066 22.5298 19.8423 22.7095 19.5814 22.8892C19.3205 23.0688 19.0968 23.2126 18.8359 23.3563C18.575 23.5001 18.314 23.6079 18.0531 23.7157C17.7922 23.8235 17.5313 23.9313 17.2704 24.0032C16.7485 24.111 16.2267 24.3267 15.7794 24.3626C15.7794 24.1829 15.6675 24.2188 15.5557 24.2188C15.4439 24.2548 15.3321 24.2548 15.2575 24.2907C15.1457 24.3267 15.0711 24.3626 14.9593 24.3985C14.8475 24.4345 14.7729 24.4704 14.6611 24.5423C14.5866 24.6142 14.4747 24.6501 14.4002 24.722C14.3256 24.7938 14.2138 24.8657 14.1393 24.9376C14.0647 25.0095 13.9529 25.0813 13.8784 25.1532C13.8038 25.2251 13.7293 25.297 13.6547 25.4048C13.5802 25.5126 13.5056 25.5845 13.4683 25.6923C13.3938 25.7642 13.3565 25.872 13.282 25.9798C13.2447 26.0876 13.1701 26.1954 13.1329 26.3032L13.021 26.6267C12.9838 26.7345 12.9838 26.8063 12.9465 26.9142V26.9501C12.9092 27.0579 12.9092 27.2017 12.9092 27.2735C12.9465 27.2376 12.9465 27.3095 12.9465 27.3813V27.5251C12.9465 27.597 12.9838 27.6688 12.9838 27.7407C13.021 27.8126 13.021 27.8845 13.0583 27.9563C13.0956 28.0282 13.1329 28.1001 13.2074 28.172C13.2447 28.2438 13.3192 28.3157 13.3565 28.3876C13.4311 28.4595 13.5056 28.5313 13.5802 28.5673C13.6547 28.6392 13.7293 28.711 13.8038 28.747C14.102 28.9985 14.1766 29.0704 14.5493 29.286C14.6238 29.322 14.6611 29.3579 14.7357 29.3938H14.7729V29.4657C14.7729 29.5735 14.8102 29.6454 14.8475 29.7532C14.8848 29.861 14.922 29.9688 14.9593 30.0407L15.0711 30.2563C15.0711 30.2923 15.1084 30.2923 15.1084 30.3282C15.1457 30.436 15.2202 30.5079 15.2575 30.5798C15.3321 30.6517 15.3693 30.7595 15.4439 30.8313L15.6675 31.047L15.8912 31.2626H15.9285C16.003 31.3345 16.0776 31.3704 16.1521 31.4423C16.2267 31.5142 16.3385 31.5501 16.413 31.586C16.4876 31.622 16.5994 31.6938 16.7112 31.7298C16.7858 31.7657 16.8603 31.8017 16.9722 31.8017C16.9722 31.8017 17.0094 31.8017 17.0094 31.8376C17.0467 31.8376 17.1213 31.8735 17.1585 31.8735C17.1213 32.5204 17.1213 33.1313 17.1958 33.347C17.3076 33.5985 17.8667 32.8438 18.3886 32.0173C18.314 32.8438 18.2768 33.8142 18.3886 34.1017C18.5377 34.3892 19.2459 33.4548 19.9169 32.4485C28.6391 30.5079 36.6159 36.3298 37.4732 44.5595C37.3241 43.2657 35.6841 42.547 34.9013 42.7267C34.5285 43.5892 33.8949 44.7392 32.8885 45.422C32.963 44.6313 32.9257 43.8407 32.7766 43.0501C32.5157 44.1282 31.9939 45.1704 31.2484 46.0329C30.0928 46.1048 28.9001 45.5657 28.3037 44.7392C28.2664 44.7032 28.2291 44.6313 28.1918 44.5954C28.1546 44.5235 28.1173 44.4157 28.08 44.3438C28.0427 44.272 28.0055 44.1642 28.0055 44.0923V43.8407V43.661C28.0055 43.5892 28.0427 43.4813 28.08 43.4095C28.1173 43.3376 28.1173 43.2298 28.1546 43.1579C28.1918 43.086 28.2291 42.9782 28.3037 42.9063C28.5273 42.3313 28.5273 41.8642 28.1173 41.6126L27.8936 41.5048C27.8564 41.5048 27.7818 41.4688 27.7445 41.4688C27.7073 41.4688 27.67 41.4329 27.6327 41.4329C27.5582 41.397 27.4463 41.397 27.3718 41.361C27.2972 41.3251 27.1854 41.3251 27.1109 41.3251C27.0363 41.3251 26.9245 41.2892 26.85 41.2892H26.6636C26.5518 41.2892 26.4772 41.2892 26.4027 41.3251C26.3281 41.3251 26.2163 41.361 26.1417 41.361C26.0672 41.397 25.9554 41.397 25.8808 41.4329C25.8063 41.4688 25.7317 41.5048 25.6199 41.5407L25.3962 41.6485C22.5261 43.4454 24.2407 47.686 26.179 48.9079C25.4335 49.0517 24.688 49.1954 24.4644 49.3392L24.4271 49.3751C24.9489 49.6985 25.5081 49.9501 26.1045 50.1657C26.8872 50.4173 27.7445 50.6329 28.1173 50.7407C29.1237 50.9563 30.1674 51.0282 31.2111 50.9563C36.6532 50.597 41.1262 46.572 41.9462 41.3251C41.9835 41.4329 41.9835 41.5407 42.0208 41.6485C42.058 41.8642 42.0953 42.0798 42.1326 42.3313C42.1699 42.4392 42.1699 42.547 42.1699 42.6548V42.6907C42.1699 42.7985 42.2071 42.9063 42.2071 43.0142C42.2071 43.1579 42.2444 43.2657 42.2444 43.4095V44.9188C42.2444 45.0267 42.2071 45.0985 42.2071 45.2063V45.3142C42.2071 45.422 42.1699 45.5298 42.1699 45.6735C42.1326 45.7813 42.1326 45.8892 42.0953 45.997V46.0329C42.058 46.1407 42.058 46.2485 42.0208 46.3563V46.3923C41.9835 46.5001 41.9835 46.6079 41.9462 46.7157V46.7517L41.8344 47.0751V47.111C41.7971 47.2188 41.7598 47.3626 41.7226 47.4704C41.6853 47.5782 41.648 47.686 41.5735 47.8298C41.5362 47.9376 41.4989 48.0813 41.4244 48.1892C41.3871 48.297 41.3125 48.4048 41.2753 48.5485C41.238 48.6563 41.1634 48.7642 41.1262 48.872C41.1262 48.9079 41.0889 48.9438 41.0889 48.9438C41.0889 48.9438 41.0889 48.9798 41.0516 48.9798C40.2688 50.5251 39.0761 51.8907 37.5851 52.9688C37.4732 53.0407 37.3987 53.1126 37.2869 53.1845C37.2496 53.2204 37.2123 53.2204 37.2123 53.2563C37.1378 53.3282 37.0259 53.3642 36.9514 53.436L36.9887 53.5079C37.175 53.472 37.3241 53.472 37.5105 53.436C37.846 53.4001 38.1442 53.3282 38.4797 53.2563C38.5542 53.2563 38.666 53.2204 38.7406 53.1845C38.8151 53.1845 38.8524 53.1485 38.927 53.1485C39.0015 53.1485 39.1133 53.1126 39.1879 53.1126C39.2624 53.0767 39.337 53.0767 39.4115 53.0407C40.6416 52.7532 41.8344 52.3579 42.9899 51.8907C41.0143 54.4782 38.4051 56.5626 35.3486 57.9282C36.765 57.8204 38.1815 57.6048 39.5606 57.2095C44.5182 55.8079 48.6929 52.5735 51.1903 48.2251C50.6685 50.9563 49.5502 53.5798 47.8729 55.8798C49.0657 55.1251 50.1466 54.2267 51.1531 53.2563C53.9114 50.4892 55.7379 46.9313 56.3342 43.1579C56.7443 45.0267 56.8934 46.9673 56.707 48.872C65.6157 36.9048 57.4525 24.5063 54.0232 21.236C54.0232 21.2001 53.9859 21.2001 53.9859 21.1642C53.9859 21.3079 53.9859 21.4517 53.9487 21.5954C53.9114 21.8829 53.8741 22.1345 53.8368 22.386C53.7623 22.6376 53.6877 22.9251 53.6132 23.1767C53.5386 23.4282 53.4268 23.6798 53.315 23.9313C53.2032 24.1829 53.0913 24.4345 52.9422 24.6501C52.7931 24.8657 52.6441 25.1173 52.4949 25.3329C52.3459 25.5485 52.1595 25.7642 51.9731 25.9798C51.7867 26.1954 51.6004 26.3751 51.3767 26.5907C51.2649 26.6985 51.1531 26.8063 51.004 26.8782C50.8921 26.9501 50.8176 27.022 50.7058 27.1298C50.4821 27.3095 50.2585 27.4532 49.9975 27.597C49.7739 27.7407 49.513 27.8845 49.2521 27.9923L48.4693 28.3157C48.2084 28.4235 47.9474 28.4954 47.6865 28.5673C47.4256 28.6392 47.1274 28.711 46.8665 28.747C46.5683 28.7829 46.3074 28.8188 46.0464 28.8548C45.8601 28.8548 45.6364 28.8907 45.45 28.8907C45.1518 28.8907 44.8909 28.8548 44.63 28.8548C44.3318 28.8188 44.0709 28.7829 43.8099 28.747C43.5117 28.711 43.2508 28.6392 42.9899 28.5313C43.2508 28.4954 43.549 28.4954 43.8099 28.4235C44.1081 28.3876 44.3691 28.3157 44.63 28.2438C44.8909 28.172 45.1891 28.1001 45.4128 27.9923L46.1955 27.6688C46.4564 27.561 46.6801 27.4173 46.941 27.2735C47.1647 27.1298 47.4256 26.9501 47.6492 26.8063C47.8729 26.6267 48.0965 26.447 48.2829 26.2673C48.5066 26.0876 48.6929 25.872 48.8793 25.6923C49.0657 25.4767 49.2521 25.261 49.4011 25.0454C49.4384 25.0095 49.4384 24.9735 49.4757 24.9376C49.5875 24.7579 49.7366 24.5423 49.8484 24.3626C49.9975 24.111 50.1094 23.8954 50.2212 23.6438C50.333 23.3923 50.4448 23.1407 50.5194 22.8892L50.743 22.1345C50.7803 21.847 50.8549 21.5954 50.8549 21.3438C50.8921 21.0563 50.8921 20.8048 50.8921 20.5532C50.8921 20.3735 50.8921 20.1579 50.8549 19.9782C50.8176 19.6907 50.7803 19.4392 50.743 19.1876C50.7058 18.9001 50.6312 18.6485 50.5567 18.397C50.4821 18.1454 50.3703 17.8938 50.2957 17.6423C50.1839 17.3907 50.0721 17.1392 49.9603 16.9235C49.8112 16.672 49.6993 16.4563 49.5502 16.2048C49.4011 15.9892 49.2148 15.7735 49.0657 15.5579C48.8793 15.3423 48.6929 15.1626 48.5066 14.947C48.3947 14.8392 48.2829 14.7313 48.1711 14.6595C47.612 14.2282 47.0528 13.8688 46.4564 13.5095C46.3819 13.4735 46.3073 13.4376 46.1955 13.4017C45.711 13.0063 45.3382 12.8985 44.9655 12.7548Z" fill="#DF234F"/>
</g>
</g>
<defs>
<clipPath id="clip0_371_15497">
<rect width="73" height="70" fill="white" transform="translate(0.5)"/>
</clipPath>
</defs>
</svg>
