<svg width="70" height="70" viewBox="0 0 70 70" fill="none" xmlns="http://www.w3.org/2000/svg">
<g clip-path="url(#clip0_371_15395)">
<path d="M35 69C53.7777 69 69 53.7777 69 35C69 16.2223 53.7777 1 35 1C16.2223 1 1 16.2223 1 35C1 53.7777 16.2223 69 35 69Z" fill="white" stroke="#019BC6" stroke-width="2"/>
<path d="M65.4998 31.4219C63.4842 30.25 60.8123 30.1094 58.5623 30.7656C58.281 28.3281 56.6873 26.2187 54.8123 24.7187L54.0623 24.1094L53.406 24.8594C52.1404 26.3125 51.7654 28.75 51.9529 30.625C52.0935 31.9844 52.5154 33.3906 53.3592 34.5156C52.7029 34.8906 51.9998 35.4062 51.3435 35.6406C50.031 36.1094 48.5779 36.5781 47.1717 36.5781H44.031V29.9688H37.9373V18.25H30.906V23.875H19.1873V29.9688H13.0935V36.5312H7.84356L7.74981 37.2344C7.51543 40.2344 7.89043 43.1406 9.15606 45.9062L9.67168 46.9375L9.71856 47.0312C13.4217 53.3125 19.8904 55.9375 26.9685 55.9375C40.656 55.9375 51.9529 49.7969 57.1092 36.9062C60.5779 37.0938 64.1404 36.0625 65.8279 32.7344L66.2498 31.8906L65.4998 31.4219ZM20.1248 25.2812H24.8123V30.4375H20.1248V25.2812ZM26.2654 46C26.2654 46.7969 25.6092 47.4531 24.8123 47.4531C24.0154 47.4531 23.3592 46.7969 23.3592 46C23.3592 45.2031 24.0154 44.5469 24.8123 44.5469C25.6092 44.5938 26.2654 45.2031 26.2654 46ZM20.1248 31.375H24.8123V36.5312H20.1248V31.375ZM14.031 31.375H19.1873V36.5312H14.031V31.375ZM27.0154 54.9062C19.6092 54.8594 15.6248 52.375 12.3435 49.0938C13.3279 49.1406 14.2654 49.1875 15.1092 49.1875C15.8592 49.1875 16.6092 49.1875 17.3123 49.1406C19.1404 49.0469 20.7342 48.8125 22.0467 48.4375C23.1248 50.9219 25.0935 53.2188 28.6092 54.9062H27.0154ZM30.906 36.5312H25.7498V31.375H30.906V36.5312ZM30.906 30.4375H25.7498V25.2812H30.906V30.4375ZM36.9998 36.5312H31.8435V31.375H36.9998V36.5312ZM36.9998 30.4375H31.8435V25.2812H36.9998V30.4375ZM36.9998 24.3438H31.8435V19.1875H36.9998V24.3438ZM43.0935 36.5312H37.9373V31.375H43.0935V36.5312ZM25.1873 45.0625C25.0935 45.0156 24.9529 44.9688 24.8123 44.9688C24.2498 44.9688 23.781 45.4375 23.781 46C23.781 46.5625 24.2498 47.0312 24.8123 47.0312C25.3748 47.0312 25.8435 46.5625 25.8435 46C25.8435 45.8594 25.7967 45.7188 25.7498 45.625C25.656 45.7656 25.5623 45.8594 25.3748 45.8594C25.1404 45.8594 24.9529 45.6719 24.9529 45.4375C24.9998 45.25 25.0935 45.1094 25.1873 45.0625Z" fill="#019BC6"/>
</g>
<defs>
<clipPath id="clip0_371_15395">
<rect width="70" height="70" fill="white"/>
</clipPath>
</defs>
</svg>
