<svg width="70" height="70" viewBox="0 0 70 70" fill="none" xmlns="http://www.w3.org/2000/svg">
<g clip-path="url(#clip0_371_15466)">
<path d="M35 69C53.7777 69 69 53.7777 69 35C69 16.2223 53.7777 1 35 1C16.2223 1 1 16.2223 1 35C1 53.7777 16.2223 69 35 69Z" fill="white" stroke="#409433" stroke-width="2"/>
<path fill-rule="evenodd" clip-rule="evenodd" d="M45.5243 25.4253C46.2271 27.4581 46.7332 29.5334 46.8996 31.6845C47.1062 34.353 47.0116 37.0028 46.449 39.6275C46.4337 39.6998 46.4013 39.7676 46.3772 39.8377C46.2008 39.8381 46.0208 39.8162 45.8483 39.8429C44.3908 40.0719 42.9346 40.3092 41.4784 40.5452C39.9731 40.7891 38.4657 41.0233 36.9631 41.2838C36.4307 41.3758 35.7718 41.2659 35.5568 42.0023C35.5507 42.0224 35.4894 42.0259 35.4539 42.0373L35.5266 37.6367L35.4526 27.0185L36.154 26.8981C37.3011 26.7103 38.4482 26.5199 39.5962 26.3373C40.9661 26.1197 42.3374 25.9082 43.7082 25.6959C44.3129 25.6017 44.9184 25.5155 45.5243 25.4253Z" fill="#439934"/>
<path fill-rule="evenodd" clip-rule="evenodd" d="M34.0056 54.8659C33.2657 54.2297 32.5 53.6216 31.7907 52.9526C27.9741 49.3528 25.1826 45.1159 23.8078 40.0078C23.4291 38.6019 23.1764 37.1733 23.0954 35.7206C23.0385 34.704 22.9562 33.6781 23.028 32.6668C23.2193 29.9767 23.6081 27.3126 24.3971 24.7215L24.4404 24.6611C24.5171 24.7631 24.6274 24.8533 24.6664 24.9684C25.4365 27.2364 26.2009 29.5061 26.9614 31.7771C29.3511 38.9137 31.7377 46.052 34.1313 53.1868C34.1781 53.3261 34.2994 53.4403 34.3866 53.566L34.0056 54.8659Z" fill="#45A538"/>
<path fill-rule="evenodd" clip-rule="evenodd" d="M45.5246 25.4251C44.9186 25.5153 44.3127 25.6015 43.708 25.6948C42.3372 25.9071 40.9659 26.1186 39.596 26.3362C38.448 26.5188 37.3009 26.7092 36.1538 26.8971L35.4524 27.0175L35.4471 26.5599C35.4239 26.1838 35.3841 25.8082 35.3797 25.4321C35.3495 23.0337 35.3306 20.6353 35.3009 18.2369C35.2825 16.7355 35.2549 15.2347 35.2242 13.7338C35.2054 12.8012 35.1853 11.8682 35.1433 10.937C35.1205 10.4365 35.0399 9.93868 35.0071 9.43824C34.9887 9.15059 35.0141 8.86075 35.0198 8.57178C35.3775 9.26486 35.7273 9.9632 36.0951 10.6511C36.6761 11.7386 37.6016 12.5398 38.4348 13.4142C41.7286 16.8695 44.067 20.887 45.5246 25.4251Z" fill="#46A037"/>
<path fill-rule="evenodd" clip-rule="evenodd" d="M35.4534 42.037C35.4888 42.0256 35.5505 42.0221 35.5562 42.0019C35.7712 41.2655 36.4301 41.3754 36.9625 41.2835C38.4652 41.0234 39.9726 40.7887 41.4778 40.5449C42.9341 40.3089 44.3903 40.0716 45.8478 39.8426C46.0203 39.8154 46.2003 39.8378 46.3767 39.8373C46.1044 40.8093 45.8898 41.8023 45.5444 42.7476C45.1521 43.8198 44.6775 44.8662 44.1736 45.892C43.4191 47.4221 42.4854 48.857 41.392 50.1665C40.5518 51.177 39.6153 52.1109 38.6766 53.0334C38.1578 53.5435 37.5462 53.959 36.977 54.4174L36.8294 54.3167L36.2979 53.8622L35.748 52.6569C35.3724 51.2508 35.1675 49.8046 35.1377 48.3496L35.1477 48.1039L35.2226 47.0418C35.2476 46.6792 35.2808 46.3172 35.2962 45.9538C35.3527 44.6482 35.4017 43.3426 35.4534 42.037Z" fill="#409433"/>
<path fill-rule="evenodd" clip-rule="evenodd" d="M35.4536 42.0373C35.4019 43.3429 35.3529 44.6485 35.2973 45.9546C35.2819 46.3179 35.2487 46.68 35.2237 47.0426L34.8888 47.1691C34.1449 44.9791 33.4006 42.8123 32.6725 40.6398C31.4685 37.0456 30.2789 33.4458 29.0766 29.8508C28.1056 26.9491 27.1278 24.0497 26.1432 21.1525C26.0972 21.0168 25.965 20.9108 25.873 20.7909L28.0166 16.8496C28.0902 16.9774 28.1874 17.0969 28.2338 17.2344C29.2266 20.1688 30.2143 23.1049 31.197 26.0426C32.4737 29.8648 33.7425 33.6901 35.0184 37.5128C35.0692 37.6656 35.1532 37.8066 35.2333 37.9778L35.5267 37.6363L35.4536 42.0373Z" fill="#4FAA41"/>
<path fill-rule="evenodd" clip-rule="evenodd" d="M25.8734 20.7915C25.9654 20.9114 26.0972 21.0174 26.1436 21.1531C27.1281 24.0503 28.106 26.9497 29.077 29.8514C30.2793 33.4464 31.4689 37.0462 32.6729 40.6403C33.4005 42.8124 34.1449 44.9796 34.8892 47.1697L35.2241 47.0431L35.1492 48.1053L35.0814 48.35C34.9649 49.5129 34.8668 50.6784 34.725 51.8386C34.6536 52.4201 34.5021 52.991 34.387 53.5667C34.3003 53.4411 34.1786 53.3268 34.1317 53.1876C31.7381 46.0523 29.3515 38.9144 26.9619 31.7778C26.2016 29.5067 25.4366 27.2371 24.6668 24.9692C24.6278 24.8541 24.5179 24.7639 24.4409 24.6618L25.8734 20.7915Z" fill="#4AA73C"/>
<path fill-rule="evenodd" clip-rule="evenodd" d="M35.5261 37.6364L35.2328 37.9779C35.1527 37.8067 35.0686 37.6652 35.0178 37.5129C33.7424 33.6902 32.4732 29.8649 31.1964 26.0427C30.2138 23.1049 29.226 20.1689 28.2332 17.2345C28.1873 17.097 28.0901 16.977 28.0161 16.8496L30.6671 13.3623C30.7507 13.474 30.8698 13.5734 30.9132 13.699C31.6492 15.8536 32.3786 18.0108 33.1036 20.1692C33.7809 22.185 34.4482 24.2038 35.1334 26.2169C35.1794 26.3518 35.3392 26.4472 35.446 26.5611L35.4513 27.0186C35.4766 30.5571 35.5016 34.097 35.5261 37.6364Z" fill="#57AE47"/>
<path fill-rule="evenodd" clip-rule="evenodd" d="M35.4469 26.5604C35.3401 26.4465 35.1803 26.3511 35.1343 26.2162C34.4491 24.2031 33.7819 22.1843 33.1045 20.1685C32.3795 18.01 31.6501 15.8533 30.9141 13.6983C30.8707 13.5727 30.7517 13.4733 30.668 13.3616C31.5301 12.5175 32.3655 11.6432 33.2622 10.838C34.0594 10.1226 34.7004 9.35551 34.7298 8.22504C34.7311 8.1782 34.7556 8.13135 34.7932 8L35.0205 8.5718C35.0148 8.86121 34.9889 9.15061 35.0078 9.43826C35.0406 9.9387 35.1212 10.4365 35.1439 10.9369C35.186 11.8682 35.2061 12.8012 35.2249 13.7338C35.2551 15.2347 35.2827 16.7355 35.3016 18.2368C35.3309 20.6352 35.3502 23.0337 35.3804 25.4321C35.3839 25.809 35.4233 26.1843 35.4469 26.5604Z" fill="#60B24F"/>
<path fill-rule="evenodd" clip-rule="evenodd" d="M34.3863 53.5658C34.5014 52.9901 34.6529 52.4187 34.7243 51.8377C34.8666 50.6779 34.9642 49.512 35.0807 48.3491L35.1096 48.3447L35.1385 48.3495C35.1683 49.8046 35.3732 51.2508 35.7488 52.6569C35.6718 52.7585 35.5627 52.8491 35.522 52.9638C35.2037 53.8613 34.9038 54.7659 34.5838 55.6634C34.54 55.786 34.4183 55.8815 34.3324 55.9892L34.0054 54.8657L34.3863 53.5658Z" fill="#A9AA88"/>
<path fill-rule="evenodd" clip-rule="evenodd" d="M34.333 55.99C34.4188 55.8823 34.5409 55.7869 34.5843 55.6643C34.9043 54.7667 35.2047 53.8626 35.5225 52.9646C35.5633 52.8499 35.6718 52.7593 35.7493 52.6577L36.2988 53.8635C36.1902 54.0176 36.0405 54.1564 35.9801 54.328L34.9275 57.4186C34.8842 57.5425 34.7362 57.6301 34.6373 57.7348L34.333 55.99Z" fill="#B6B598"/>
<path fill-rule="evenodd" clip-rule="evenodd" d="M34.6372 57.7341C34.7365 57.6299 34.8841 57.5419 34.9274 57.4179L35.98 54.3273C36.04 54.1561 36.1901 54.0169 36.2987 53.8628L36.8307 54.3168C36.5737 54.5708 36.4309 54.8641 36.5168 55.2349L36.3552 55.7638C36.2816 55.8545 36.1752 55.9333 36.1389 56.037C35.7716 57.0891 35.4209 58.1469 35.0509 59.199C35.0041 59.3326 34.874 59.4372 34.7821 59.5545C34.7344 58.9473 34.6858 58.3413 34.6372 57.7341Z" fill="#C2C1A7"/>
<path fill-rule="evenodd" clip-rule="evenodd" d="M34.7822 59.5544C34.8738 59.4366 35.0038 59.332 35.0511 59.1989C35.421 58.1472 35.7717 57.0894 36.1391 56.0369C36.1754 55.9335 36.2814 55.8543 36.3554 55.7637L36.1325 58.1914C36.073 58.2602 35.9867 58.3201 35.9582 58.4003C35.7065 59.1069 35.4692 59.8188 35.2166 60.5255C35.1645 60.6713 35.0646 60.8 34.9867 60.9362C34.9175 60.8455 34.7936 60.758 34.7879 60.6634C34.7656 60.2952 34.7809 59.9243 34.7822 59.5544Z" fill="#CECDB7"/>
<path fill-rule="evenodd" clip-rule="evenodd" d="M34.9863 60.9366C35.0643 60.8 35.1641 60.6713 35.2162 60.5259C35.4693 59.8197 35.7061 59.1078 35.9579 58.4007C35.9863 58.3206 36.073 58.261 36.1321 58.1919L36.1374 59.7855L35.6041 61.1533L34.9863 60.9366Z" fill="#DBDAC7"/>
<path fill-rule="evenodd" clip-rule="evenodd" d="M35.604 61.1534L36.1373 59.7856L36.2472 61.4039L35.604 61.1534Z" fill="#EBE9DC"/>
<path fill-rule="evenodd" clip-rule="evenodd" d="M36.5167 55.2355C36.4309 54.8647 36.5732 54.5709 36.8306 54.3174L36.9782 54.4181L36.5167 55.2355Z" fill="#CECDB7"/>
<path fill-rule="evenodd" clip-rule="evenodd" d="M35.1384 48.3502L35.1095 48.3453L35.0806 48.3497L35.1485 48.105L35.1384 48.3502Z" fill="#4FAA41"/>
</g>
<defs>
<clipPath id="clip0_371_15466">
<rect width="70" height="70" fill="white"/>
</clipPath>
</defs>
</svg>
