<svg width="70" height="70" viewBox="0 0 70 70" fill="none" xmlns="http://www.w3.org/2000/svg">
<g clip-path="url(#clip0_371_15367)">
<path d="M35 69C53.7777 69 69 53.7777 69 35C69 16.2223 53.7777 1 35 1C16.2223 1 1 16.2223 1 35C1 53.7777 16.2223 69 35 69Z" fill="white" stroke="#FDBD39" stroke-width="2"/>
<mask id="mask0_371_15367" style="mask-type:luminance" maskUnits="userSpaceOnUse" x="10" y="15" width="50" height="40">
<path d="M60 15.0166H10V54.9825H60V15.0166Z" fill="white"/>
</mask>
<g mask="url(#mask0_371_15367)">
<path d="M17.7073 42.5718L15.0918 43.5274L14.9526 51.3074L24.0062 48.0001C20.8983 46.9593 18.6318 45.125 17.7073 42.5718Z" fill="#FDBD39"/>
<path d="M19.0764 34.3428L10 37.6584L15.0918 43.5293L17.7073 42.5737C16.7849 40.0288 17.3542 37.1557 19.0764 34.3428Z" fill="#F69833"/>
<path d="M34.3479 23.1141C22.791 27.3354 15.3392 36.0482 17.7075 42.5714L59.5577 27.2835C57.1894 20.7603 45.9047 18.8927 34.3479 23.1141Z" fill="#FECF33"/>
<path d="M42.915 46.743C54.4719 42.5216 61.9361 33.8482 59.5554 27.2856L17.7051 42.5714C20.0859 49.1362 31.3581 50.9643 42.915 46.743Z" fill="#EE6723"/>
<path d="M59.5556 27.2837L17.7075 42.5717C18.5261 44.8319 21.6526 45.9454 26.036 45.9454C30.3114 45.9454 35.7834 44.888 41.4881 42.8043C53.0449 38.583 61.174 31.7461 59.5556 27.2837Z" fill="#F69833"/>
<path d="M51.2268 23.9116C46.9535 23.9116 41.4794 24.969 35.7748 27.0527C24.2179 31.2741 16.0889 38.1089 17.7072 42.5712L59.5574 27.2833C58.7368 25.023 55.6123 23.9116 51.2268 23.9116Z" fill="#FDBD39"/>
<path d="M48.9146 51.7206C47.6827 51.7206 45.867 50.6091 43.5154 48.4154C40.7337 45.8206 37.549 42.0189 34.5429 37.7124C31.5389 33.4058 29.0709 29.1013 27.5918 25.5884C25.9818 21.7617 25.7512 19.4101 26.9083 18.5957C27.1763 18.4129 27.4942 18.3194 27.8182 18.3277C28.7593 18.3277 30.5958 19.0278 33.9882 22.3683L34.063 22.441L34.0526 22.5449C34.0298 22.7859 34.009 23.0269 33.9903 23.2658L33.9529 23.7374L33.6205 23.4029C29.9642 19.7196 28.3563 19.3228 27.8328 19.3228C27.6832 19.3228 27.5648 19.3519 27.4796 19.4121C26.9769 19.7653 26.9436 21.4937 28.5059 25.202C29.958 28.6505 32.3907 32.8906 35.3552 37.1411C38.3218 41.3936 41.4587 45.1371 44.1926 47.6862C47.1384 50.4346 48.4659 50.7317 48.9001 50.7317C49.0497 50.7317 49.1701 50.7005 49.2615 50.6361C49.7913 50.2643 49.7913 48.4133 48.0504 44.4204L47.9694 44.2376L48.1439 44.1421C48.3184 44.0465 48.4887 43.953 48.6466 43.8616L48.8564 43.7432L48.9541 43.9634C50.1881 46.7929 51.3431 50.3889 49.8287 51.4526C49.5607 51.6354 49.2408 51.7289 48.9146 51.7206Z" fill="#EE6723"/>
<path d="M43.1953 46.6225L43.1787 46.8386C42.8858 50.4534 42.1171 54.7994 40.1103 54.976C40.0688 54.9801 40.0272 54.9801 39.9878 54.9801C38.625 54.9801 37.3349 53.0273 36.157 49.1778C35.0393 45.534 34.173 40.6437 33.7181 35.4064C33.261 30.1692 33.2673 25.202 33.7368 21.419C34.2478 17.2973 35.2201 15.1451 36.6286 15.0204C36.6701 15.0163 36.7137 15.0142 36.7553 15.0142C37.7441 15.0142 39.2337 16.1339 40.7585 21.3483L39.7634 21.5395C39.2544 19.7986 38.6998 18.3817 38.1492 17.4053C37.6403 16.5058 37.1438 16.0093 36.7553 16.0093C36.7428 16.0093 36.7304 16.0093 36.7158 16.0114C36.105 16.0654 35.2159 17.5445 34.7215 21.5415C34.2603 25.256 34.254 30.1505 34.7049 35.3192C35.1557 40.4899 36.0074 45.3075 37.1043 48.8849C37.5946 50.4866 38.1326 51.8079 38.6624 52.7032C39.1485 53.5301 39.6201 53.985 39.9878 53.985C40.0002 53.985 40.0127 53.985 40.0252 53.9829C40.6089 53.9331 41.71 52.3916 42.1732 46.9716L43.1953 46.6225Z" fill="#EE6723"/>
</g>
</g>
<defs>
<clipPath id="clip0_371_15367">
<rect width="70" height="70" fill="white"/>
</clipPath>
</defs>
</svg>
