<svg width="70" height="70" viewBox="0 0 70 70" fill="none" xmlns="http://www.w3.org/2000/svg">
<g clip-path="url(#clip0_371_15449)">
<path d="M35 69C53.7777 69 69 53.7777 69 35C69 16.2223 53.7777 1 35 1C16.2223 1 1 16.2223 1 35C1 53.7777 16.2223 69 35 69Z" fill="white" stroke="#6181B6" stroke-width="2"/>
<path d="M35.0001 20.4873C19.1845 20.4873 6.3623 26.9851 6.3623 35.0002C6.3623 43.0154 19.1845 49.5132 35.0001 49.5132C50.8157 49.5132 63.6379 43.0154 63.6379 35.0002C63.6379 26.9851 50.8157 20.4873 35.0001 20.4873ZM27.5484 37.8277C26.8649 38.4671 26.106 38.731 25.2703 39.0029C24.4345 39.2752 23.3709 39.219 22.0776 39.219H19.1465L18.3342 43.9065H14.9118L17.9657 27.969H24.547C26.527 27.969 27.9712 28.5385 28.8792 29.5777C29.7871 30.6169 30.0599 32.0921 29.6981 33.9544C29.5485 34.7218 29.2968 35.4352 28.9415 36.0709C28.5733 36.7267 28.103 37.3197 27.5484 37.8277ZM37.5379 39.219L38.8884 32.4596C39.0421 31.6684 38.9859 31.0805 38.7192 30.7932C38.452 30.5054 37.8838 30.3127 37.0153 30.3127H34.3012L32.5523 39.219H29.1567L32.2106 23.7502H35.6062L34.7943 27.969H37.8192C39.7228 27.969 41.0353 28.351 41.7576 29.0148C42.4799 29.6785 42.6965 30.5879 42.4078 32.0748L40.987 39.219H37.5379ZM56.4093 33.9793C56.2603 34.7466 56.0081 35.4479 55.6532 36.083C55.2979 36.7191 54.8338 37.3009 54.2606 37.8277C53.5771 38.4671 52.8177 38.731 51.9824 39.0029C51.1471 39.2752 50.0826 39.219 48.7893 39.219H45.8582L45.0463 43.9065H41.624L44.6774 27.969H51.2592C53.2392 27.969 54.6834 28.5385 55.5909 29.5777C56.4979 30.6169 56.7712 32.1174 56.4093 33.9793ZM49.9621 30.3127H47.6179L46.3396 36.8752H48.4218C49.8009 36.8752 50.8293 36.7393 51.5043 36.219C52.1803 35.6996 52.6354 34.8934 52.8721 33.6779C53.099 32.5102 52.9959 31.5994 52.5628 31.1194C52.1292 30.6394 51.2624 30.3127 49.9621 30.3127ZM23.2504 30.3127H20.9057L19.6274 36.8752H21.7092C23.0887 36.8752 24.1167 36.7393 24.7921 36.219C25.4676 35.6996 25.9232 34.8934 26.1595 33.6779C26.3863 32.5102 26.2832 31.5994 25.8501 31.1194C25.417 30.6394 24.5507 30.3127 23.2504 30.3127Z" fill="#6181B6"/>
</g>
<defs>
<clipPath id="clip0_371_15449">
<rect width="70" height="70" fill="white"/>
</clipPath>
</defs>
</svg>
