<svg width="70" height="70" viewBox="0 0 70 70" fill="none" xmlns="http://www.w3.org/2000/svg">
<g clip-path="url(#clip0_371_15403)">
<path d="M35 69C53.7777 69 69 53.7777 69 35C69 16.2223 53.7777 1 35 1C16.2223 1 1 16.2223 1 35C1 53.7777 16.2223 69 35 69Z" fill="white" stroke="#252F3E" stroke-width="2"/>
<path d="M24.2226 32.9801C24.2226 33.5847 24.2879 34.075 24.4023 34.4345C24.5331 34.794 24.6965 35.1862 24.9253 35.6111C25.007 35.7418 25.0397 35.8726 25.0397 35.987C25.0397 36.1504 24.9416 36.3138 24.7292 36.4772L23.6997 37.1635C23.5526 37.2616 23.4055 37.3106 23.2748 37.3106C23.1114 37.3106 22.9479 37.2289 22.7845 37.0818C22.5557 36.8367 22.3596 36.5752 22.1962 36.3138C22.0328 36.036 21.8694 35.7255 21.6896 35.3496C20.415 36.8531 18.8135 37.6048 16.8852 37.6048C15.5125 37.6048 14.4177 37.2126 13.6169 36.4282C12.8162 35.6438 12.4077 34.5979 12.4077 33.2906C12.4077 31.9016 12.8979 30.774 13.8947 29.9242C14.8916 29.0745 16.2152 28.6496 17.8984 28.6496C18.454 28.6496 19.026 28.6986 19.6306 28.7803C20.2352 28.862 20.8562 28.9928 21.5099 29.1398V27.9469C21.5099 26.705 21.2484 25.8389 20.7418 25.3323C20.2189 24.8257 19.3365 24.5806 18.0782 24.5806C17.5062 24.5806 16.9179 24.6459 16.3133 24.793C15.7086 24.9401 15.1203 25.1198 14.5484 25.3486C14.2869 25.463 14.0908 25.5284 13.9764 25.561C13.862 25.5937 13.7803 25.6101 13.715 25.6101C13.4862 25.6101 13.3718 25.4467 13.3718 25.1035V24.3028C13.3718 24.0413 13.4045 23.8452 13.4862 23.7308C13.5679 23.6164 13.715 23.502 13.9438 23.3876C14.5157 23.0935 15.2021 22.8484 16.0028 22.6523C16.8035 22.4398 17.6533 22.3418 18.5521 22.3418C20.4967 22.3418 21.9184 22.783 22.8336 23.6654C23.7323 24.5479 24.1899 25.8879 24.1899 27.6854V32.9801H24.2226ZM17.5879 35.464C18.1272 35.464 18.6828 35.366 19.2711 35.1699C19.8594 34.9738 20.3823 34.6143 20.8235 34.124C21.085 33.8135 21.2811 33.4704 21.3792 33.0782C21.4772 32.686 21.5426 32.2121 21.5426 31.6564V30.9701C21.0687 30.8557 20.5621 30.7577 20.0391 30.6923C19.5162 30.6269 19.0096 30.5942 18.503 30.5942C17.4082 30.5942 16.6074 30.8067 16.0682 31.2479C15.5289 31.6891 15.2674 32.3101 15.2674 33.1272C15.2674 33.8952 15.4635 34.4672 15.8721 34.8594C16.2643 35.2679 16.8362 35.464 17.5879 35.464ZM30.7102 37.2289C30.416 37.2289 30.2199 37.1799 30.0892 37.0655C29.9585 36.9674 29.8441 36.7387 29.746 36.4282L25.9058 23.7962C25.8077 23.4693 25.7587 23.2569 25.7587 23.1425C25.7587 22.881 25.8894 22.734 26.1509 22.734H27.7524C28.0628 22.734 28.2753 22.783 28.3897 22.8974C28.5204 22.9954 28.6185 23.2242 28.7165 23.5347L31.4619 34.3528L34.0112 23.5347C34.0929 23.2079 34.1909 22.9954 34.3217 22.8974C34.4524 22.7993 34.6812 22.734 34.9753 22.734H36.2826C36.5931 22.734 36.8056 22.783 36.9363 22.8974C37.067 22.9954 37.1814 23.2242 37.2468 23.5347L39.8288 34.4835L42.6558 23.5347C42.7539 23.2079 42.8683 22.9954 42.9827 22.8974C43.1134 22.7993 43.3258 22.734 43.62 22.734H45.1398C45.4012 22.734 45.5483 22.8647 45.5483 23.1425C45.5483 23.2242 45.5319 23.3059 45.5156 23.404C45.4993 23.502 45.4666 23.6327 45.4012 23.8125L41.4629 36.4445C41.3649 36.7713 41.2505 36.9838 41.1197 37.0818C40.989 37.1799 40.7766 37.2453 40.4988 37.2453H39.0934C38.7829 37.2453 38.5705 37.1962 38.4397 37.0818C38.309 36.9674 38.1946 36.755 38.1292 36.4282L35.5963 25.8879L33.0797 36.4118C32.998 36.7387 32.8999 36.9511 32.7692 37.0655C32.6385 37.1799 32.4097 37.2289 32.1155 37.2289H30.7102ZM51.709 37.6701C50.8593 37.6701 50.0095 37.5721 49.1925 37.376C48.3754 37.1799 47.7381 36.9674 47.3132 36.7223C47.0517 36.5752 46.872 36.4118 46.8066 36.2648C46.7412 36.1177 46.7085 35.9543 46.7085 35.8072V34.9738C46.7085 34.6306 46.8393 34.4672 47.0844 34.4672C47.1824 34.4672 47.2805 34.4835 47.3785 34.5162C47.4766 34.5489 47.6237 34.6143 47.7871 34.6796C48.3427 34.9248 48.9473 35.1209 49.5847 35.2516C50.2383 35.3823 50.8756 35.4477 51.5293 35.4477C52.5588 35.4477 53.3595 35.2679 53.9152 34.9084C54.4708 34.5489 54.7649 34.026 54.7649 33.356C54.7649 32.8984 54.6178 32.5225 54.3237 32.2121C54.0295 31.9016 53.4739 31.6238 52.6732 31.3623L50.3037 30.6269C49.1107 30.2511 48.2283 29.6955 47.689 28.9601C47.1498 28.2411 46.872 27.4403 46.872 26.5906C46.872 25.9042 47.019 25.2996 47.3132 24.7767C47.6073 24.2537 47.9995 23.7962 48.4898 23.4366C48.98 23.0608 49.5356 22.783 50.1893 22.5869C50.8429 22.3908 51.5293 22.3091 52.2483 22.3091C52.6078 22.3091 52.9837 22.3254 53.3432 22.3744C53.7191 22.4235 54.0622 22.4888 54.4054 22.5542C54.7322 22.6359 55.0427 22.7176 55.3369 22.8157C55.631 22.9137 55.8598 23.0118 56.0232 23.1098C56.252 23.2405 56.4154 23.3713 56.5135 23.5184C56.6115 23.6491 56.6605 23.8288 56.6605 24.0576V24.8257C56.6605 25.1689 56.5298 25.3486 56.2847 25.3486C56.154 25.3486 55.9415 25.2832 55.6637 25.1525C54.7322 24.7276 53.6864 24.5152 52.5261 24.5152C51.5947 24.5152 50.8593 24.6623 50.3527 24.9728C49.8461 25.2832 49.5847 25.7571 49.5847 26.4272C49.5847 26.8847 49.7481 27.2769 50.0749 27.5874C50.4017 27.8979 51.0064 28.2084 51.8725 28.4862L54.193 29.2216C55.3696 29.5974 56.2193 30.1203 56.7259 30.7903C57.2325 31.4603 57.4776 32.2284 57.4776 33.0782C57.4776 33.7808 57.3305 34.4182 57.0527 34.9738C56.7586 35.5294 56.3664 36.0196 55.8598 36.4118C55.3532 36.8204 54.7486 37.1145 54.0459 37.327C53.3105 37.5557 52.5425 37.6701 51.709 37.6701Z" fill="#252F3E"/>
<path fill-rule="evenodd" clip-rule="evenodd" d="M54.7978 45.6121C49.4215 49.5831 41.6103 51.6912 34.8939 51.6912C25.4812 51.6912 17 48.2105 10.5942 42.4255C10.0876 41.968 10.5451 41.347 11.1498 41.7065C18.0785 45.7265 26.6251 48.1614 35.4659 48.1614C41.4305 48.1614 47.9834 46.9195 54.0134 44.3702C54.9122 43.9616 55.6803 44.9585 54.7978 45.6121Z" fill="#FF9900"/>
<path fill-rule="evenodd" clip-rule="evenodd" d="M57.0365 43.0631C56.3501 42.1806 52.4936 42.6382 50.7452 42.8506C50.2222 42.916 50.1405 42.4584 50.6144 42.1153C53.6865 39.9582 58.7359 40.5792 59.3242 41.2982C59.9125 42.0335 59.1608 47.0831 56.2848 49.5016C55.8436 49.8775 55.4187 49.6814 55.6148 49.1911C56.2684 47.5733 57.7228 43.9292 57.0365 43.0631Z" fill="#FF9900"/>
</g>
<defs>
<clipPath id="clip0_371_15403">
<rect width="70" height="70" fill="white"/>
</clipPath>
</defs>
</svg>
