<svg width="70" height="70" viewBox="0 0 70 70" fill="none" xmlns="http://www.w3.org/2000/svg">
<g clip-path="url(#clip0_371_15294)">
<path d="M35 69C53.7777 69 69 53.7777 69 35C69 16.2223 53.7777 1 35 1C16.2223 1 1 16.2223 1 35C1 53.7777 16.2223 69 35 69Z" fill="white" stroke="#F06A6A" stroke-width="2"/>
<path fill-rule="evenodd" clip-rule="evenodd" d="M46.3008 36.5734C41.4962 36.5734 37.6015 40.4683 37.6015 45.273C37.6015 50.0776 41.4962 53.9725 46.3008 53.9725C51.1053 53.9725 55 50.0776 55 45.273C55 40.4683 51.1053 36.5734 46.3008 36.5734ZM23.6993 36.5742C18.8948 36.5742 15 40.4683 15 45.273C15 50.0776 18.8948 53.9725 23.6993 53.9725C28.5039 53.9725 32.399 50.0776 32.399 45.273C32.399 40.4683 28.5039 36.5742 23.6993 36.5742ZM43.6991 25.6991C43.6991 30.5039 39.8044 34.3992 35.0001 34.3992C30.1954 34.3992 26.3007 30.5039 26.3007 25.6991C26.3007 20.8952 30.1954 17 35.0001 17C39.8044 17 43.6991 20.8952 43.6991 25.6991Z" fill="#F06A6A"/>
</g>
<defs>
<clipPath id="clip0_371_15294">
<rect width="70" height="70" fill="white"/>
</clipPath>
</defs>
</svg>
