<svg width="70" height="70" viewBox="0 0 70 70" fill="none" xmlns="http://www.w3.org/2000/svg">
<g clip-path="url(#clip0_371_15518)">
<path d="M35 69C53.7777 69 69 53.7777 69 35C69 16.2223 53.7777 1 35 1C16.2223 1 1 16.2223 1 35C1 53.7777 16.2223 69 35 69Z" fill="white" stroke="#470137" stroke-width="2"/>
<path d="M17.5 30.1666C17.5 25.7329 17.5 23.516 18.3629 21.8226C19.1219 20.333 20.333 19.1219 21.8226 18.3629C23.516 17.5 25.7329 17.5 30.1666 17.5H39.8334C44.2671 17.5 46.484 17.5 48.1774 18.3629C49.667 19.1219 50.8781 20.333 51.6371 21.8226C52.5 23.516 52.5 25.7329 52.5 30.1666V39.8334C52.5 44.2671 52.5 46.484 51.6371 48.1774C50.8781 49.667 49.667 50.8781 48.1774 51.6371C46.484 52.5 44.2671 52.5 39.8334 52.5H30.1666C25.7329 52.5 23.516 52.5 21.8226 51.6371C20.333 50.8781 19.1219 49.667 18.3629 48.1774C17.5 46.484 17.5 44.2671 17.5 39.8334V30.1666Z" fill="#470137"/>
<path d="M35.8081 27.792L31.441 35.185L36.1133 43.0354C36.2104 43.2134 36.1133 43.2528 35.9725 43.2528H32.6385C32.4036 43.2528 32.2393 43.2443 32.1454 43.0836C31.832 42.4575 31.519 41.8354 31.2061 41.2173C30.8929 40.5994 30.5603 39.9693 30.2084 39.3269C29.8561 38.685 29.5079 38.0349 29.1635 37.3764C28.8503 38.0186 28.5019 38.6608 28.1656 39.3029C27.8289 39.9451 27.4963 40.5833 27.1678 41.2173C26.8391 41.8516 26.5025 42.4818 26.1582 43.1076C26.0955 43.2521 25.9857 43.267 25.8294 43.267H22.6128C22.4864 43.267 22.4712 43.172 22.5424 43.0595L27.0738 35.4258L22.6598 27.7679C22.5796 27.6586 22.6486 27.5423 22.7772 27.5511H26.0877C26.231 27.5431 26.3577 27.5971 26.4399 27.7198C26.7217 28.362 27.0347 29.0043 27.379 29.6463C27.7231 30.2885 28.0715 30.9228 28.4239 31.5486C28.7761 32.1748 29.1244 32.8089 29.4218 33.4511C29.7346 32.793 30.0516 32.1509 30.3726 31.5246C30.6934 30.8985 31.022 30.2684 31.3588 29.6343C31.6953 29.0003 32.02 28.3701 32.3331 27.7439C32.3748 27.6065 32.4743 27.5369 32.6149 27.5511H35.6906C35.8081 27.5511 35.8566 27.7115 35.8081 27.792Z" fill="#FF61F6"/>
<path d="M42.5462 43.5656C40.4756 43.598 38.3067 42.7454 37.2164 40.8565C36.6842 39.9496 36.4181 38.8139 36.4182 37.449C36.4093 36.3438 36.6847 35.2556 37.2164 34.2944C38.5886 31.8416 41.3528 30.9226 43.9784 31.1639V26.4198C43.9784 26.3077 44.0254 26.2513 44.1193 26.2513H47.0777C47.1586 26.2394 47.2301 26.3128 47.2185 26.3957V40.6277C47.2185 41.2149 47.2768 41.8 47.3126 42.3856C47.3183 42.4856 47.2604 42.5846 47.1716 42.6265C45.7099 43.2518 44.1283 43.5584 42.5462 43.5656ZM43.9784 40.5795V34.0054C41.8339 33.4096 39.7519 35.043 39.7522 37.3045C39.7013 39.6426 41.7168 41.258 43.9784 40.5795Z" fill="#FF61F6"/>
</g>
<defs>
<clipPath id="clip0_371_15518">
<rect width="70" height="70" fill="white"/>
</clipPath>
</defs>
</svg>
