<svg width="70" height="70" viewBox="0 0 70 70" fill="none" xmlns="http://www.w3.org/2000/svg">
<g clip-path="url(#clip0_371_15303)">
<path d="M35 69C53.7777 69 69 53.7777 69 35C69 16.2223 53.7777 1 35 1C16.2223 1 1 16.2223 1 35C1 53.7777 16.2223 69 35 69Z" fill="white" stroke="#858585" stroke-width="2"/>
<path d="M42.7683 17.7623C33.8004 13.4724 23.0529 17.2647 18.763 26.2326C14.4732 35.2005 18.2655 45.9481 27.2334 50.2379C36.2013 54.5278 46.9488 50.7355 51.2386 41.7676C55.5285 32.7997 51.7362 22.0521 42.7683 17.7623Z" stroke="#858585" stroke-width="2"/>
<line x1="20.9122" y1="24.1478" x2="49.2811" y2="45.2478" stroke="#858585" stroke-width="2"/>
</g>
<defs>
<clipPath id="clip0_371_15303">
<rect width="70" height="70" fill="white"/>
</clipPath>
</defs>
</svg>
