<svg width="70" height="70" viewBox="0 0 70 70" fill="none" xmlns="http://www.w3.org/2000/svg">
<g clip-path="url(#clip0_371_15504)">
<path d="M35 69C53.7777 69 69 53.7777 69 35C69 16.2223 53.7777 1 35 1C16.2223 1 1 16.2223 1 35C1 53.7777 16.2223 69 35 69Z" fill="white" stroke="#001E36" stroke-width="2"/>
<path d="M16.6001 30.4284C16.6001 25.868 16.6001 23.5878 17.4876 21.846C18.2683 20.3138 19.514 19.0681 21.0462 18.2874C22.788 17.3999 25.0682 17.3999 29.6286 17.3999H39.5716C44.132 17.3999 46.4122 17.3999 48.154 18.2874C49.6862 19.0681 50.9319 20.3138 51.7126 21.846C52.6001 23.5878 52.6001 25.868 52.6001 30.4284V40.3714C52.6001 44.9318 52.6001 47.212 51.7126 48.9538C50.9319 50.486 49.6862 51.7317 48.154 52.5124C46.4122 53.3999 44.132 53.3999 39.5716 53.3999H29.6286C25.0682 53.3999 22.788 53.3999 21.0462 52.5124C19.514 51.7317 18.2683 50.486 17.4876 48.9538C16.6001 47.212 16.6001 44.9318 16.6001 40.3714V30.4284Z" fill="#001E36"/>
<path d="M23.8013 43.2129V27.3821C23.8013 27.2745 23.8463 27.2129 23.9513 27.2129C25.5014 27.2129 27.0508 27.1206 28.6012 27.1206C31.1172 27.1206 33.8414 27.9809 34.7963 30.6129C35.0213 31.2591 35.1413 31.9206 35.1413 32.6129C35.1413 33.936 34.8413 35.0283 34.2413 35.8898C32.5652 38.2964 29.6603 38.259 27.0563 38.259V43.1976C27.0766 43.3438 26.952 43.4129 26.8313 43.4129H23.9813C23.8613 43.4129 23.8013 43.3513 23.8013 43.2129ZM27.0712 30.1821V35.3514C28.1038 35.427 29.1842 35.4352 30.1762 35.1053C31.2715 34.7893 31.8713 33.8413 31.8713 32.7052C31.9017 31.7372 31.3743 30.8084 30.4763 30.4591C29.4962 30.0515 28.1292 30.0271 27.0712 30.1821Z" fill="#31A8FF"/>
<path d="M44.4984 34.3297C44.0446 34.0904 43.5612 33.9154 43.0614 33.8095C42.4193 33.6584 39.8867 33.1292 39.8857 34.4535C39.9082 35.1928 41.0818 35.5549 41.6003 35.7662C43.4207 36.3912 45.4807 37.5083 45.4402 39.7541C45.4959 42.5497 42.7872 43.6674 40.4653 43.6677C39.2566 43.6801 37.9973 43.4929 36.8911 42.974C36.7854 42.9181 36.7176 42.7987 36.7221 42.6768V40.0017C36.7101 39.8945 36.8253 39.8008 36.9153 39.8779C37.9991 40.5334 39.2838 40.8517 40.5378 40.8687C41.0913 40.8687 42.1883 40.8151 42.18 40.0017C42.18 39.2213 40.8677 38.8624 40.3445 38.6642C39.5862 38.3935 38.8673 38.0185 38.2073 37.5496C37.2849 36.8917 36.7064 35.8369 36.7221 34.6764C36.7167 32.044 39.21 30.8625 41.4555 30.862C42.5052 30.8532 43.6325 30.931 44.6097 31.3573C44.7502 31.3986 44.7792 31.5467 44.7787 31.6793V34.181C44.7876 34.3363 44.6152 34.3892 44.4984 34.3297Z" fill="#31A8FF"/>
</g>
<defs>
<clipPath id="clip0_371_15504">
<rect width="70" height="70" fill="white"/>
</clipPath>
</defs>
</svg>
